<?xml version="1.0" standalone="no"?>
<!DOCTYPE svg PUBLIC "-//W3C//DTD SVG 20010904//EN"
 "http://www.w3.org/TR/2001/REC-SVG-20010904/DTD/svg10.dtd">
<svg version="1.0" xmlns="http://www.w3.org/2000/svg"
 width="724.000000pt" height="724.000000pt" viewBox="0 0 724.000000 724.000000"
 preserveAspectRatio="xMidYMid meet">
<metadata>
Created by potrace 1.11, written by Peter Selinger 2001-2013
</metadata>
<g transform="translate(0.000000,724.000000) scale(0.100000,-0.100000)"
fill="#000000" stroke="none">
<path d="M3180 6954 c-131 -15 -203 -31 -242 -50 -15 -8 -36 -14 -48 -14 -11
0 -28 -4 -38 -9 -9 -5 -47 -22 -84 -36 -37 -15 -69 -33 -72 -40 -2 -6 -28 -24
-57 -39 -28 -15 -66 -41 -83 -57 -17 -16 -34 -29 -37 -29 -3 0 -19 -11 -35
-25 -23 -20 -25 -25 -11 -25 10 0 15 -5 12 -10 -3 -6 -18 -8 -33 -5 -19 4 -22
3 -8 -3 16 -7 10 -14 -37 -50 -85 -64 -154 -137 -176 -187 -11 -25 -25 -45
-31 -45 -6 0 -8 5 -5 10 3 6 0 10 -7 10 -10 0 -10 2 -1 8 16 10 24 60 11 64
-6 2 -4 11 6 21 16 16 16 18 1 23 -9 4 -21 2 -28 -5 -6 -6 -27 -11 -47 -12
-42 0 -155 -40 -154 -54 0 -5 -10 -18 -23 -28 -13 -10 -23 -25 -23 -33 0 -8
-7 -14 -16 -14 -8 0 -12 -4 -9 -10 3 -5 -1 -10 -9 -10 -9 0 -16 -7 -16 -16 0
-9 -9 -18 -20 -21 -11 -3 -20 -9 -20 -14 0 -5 -19 -18 -42 -30 l-43 -22 34 -9
c23 -7 37 -6 45 2 8 9 5 11 -14 5 -19 -5 -21 -4 -10 4 8 6 23 8 34 5 11 -4 16
-2 12 4 -3 5 3 12 14 15 11 3 20 2 20 -1 -1 -14 -28 -42 -41 -42 -11 0 -11 -2
-1 -8 8 -6 3 -15 -19 -31 -17 -13 -28 -25 -26 -28 3 -2 -1 -16 -9 -31 -15 -29
-10 -42 8 -24 18 18 47 15 43 -5 -1 -10 -10 -17 -19 -17 -14 2 -76 -49 -76
-62 0 -3 10 -3 23 1 12 3 -1 -9 -29 -27 -29 -18 -60 -45 -70 -60 -10 -15 -21
-25 -25 -23 -3 3 -19 -9 -34 -25 -19 -20 -31 -26 -36 -19 -5 9 -10 9 -20 0 -8
-6 -23 -19 -34 -27 -19 -15 -19 -15 3 -4 15 7 22 7 22 0 0 -9 -6 -11 -42 -14
-18 -1 -101 -59 -99 -69 2 -9 -24 -37 -35 -37 -4 0 -13 -8 -20 -17 -12 -17
-13 -17 -14 -1 0 9 5 20 10 23 6 4 8 15 5 26 -5 14 -3 17 9 13 10 -4 16 -1 16
8 0 8 8 23 18 34 9 11 42 49 72 84 30 36 59 68 64 72 6 4 8 9 5 12 -6 6 -95
-79 -133 -127 -15 -21 -35 -36 -43 -35 -15 3 -22 -8 -82 -133 -23 -47 -41 -94
-41 -105 0 -11 -4 -24 -9 -29 -10 -11 -55 -125 -65 -165 -43 -172 -60 -316
-41 -346 7 -12 17 -37 20 -58 4 -20 11 -36 16 -36 25 0 43 -104 55 -305 3 -44
8 -89 13 -100 5 -11 13 -51 19 -88 7 -43 17 -73 27 -81 9 -7 23 -42 31 -79 9
-44 27 -87 52 -125 35 -53 41 -57 82 -62 25 -3 55 -14 67 -25 11 -11 33 -31
47 -43 14 -13 30 -43 36 -65 6 -23 17 -57 26 -76 22 -49 10 -49 -34 -2 -21 22
-44 41 -51 41 -7 0 -24 9 -38 20 -14 11 -32 20 -40 20 -24 0 -75 -58 -69 -77
3 -10 7 -36 11 -57 12 -84 38 -150 70 -176 10 -8 21 -23 27 -35 5 -11 17 -36
28 -55 18 -35 18 -35 24 -10 4 21 15 204 16 278 0 13 6 22 15 22 8 0 15 -4 15
-9 0 -6 26 -36 58 -68 l59 -58 7 -108 c6 -90 4 -110 -9 -123 -21 -21 -19 -39
7 -51 17 -7 26 -5 40 9 10 10 24 18 31 18 19 0 45 -65 52 -132 3 -31 15 -81
26 -110 10 -29 22 -75 25 -103 3 -27 9 -59 14 -70 19 -46 23 -61 22 -85 -1
-24 -1 -24 8 3 5 16 5 41 -1 60 -5 18 -11 58 -13 89 -2 32 -11 71 -20 89 -9
17 -13 36 -10 41 3 5 2 14 -3 21 -23 31 -59 211 -69 342 -4 55 -8 114 -10 130
-7 65 -7 221 0 243 6 19 13 23 34 18 15 -3 21 -3 15 0 -7 3 -13 13 -13 23 0 9
-5 22 -12 29 -9 9 -9 12 -1 12 7 0 15 -4 18 -10 3 -5 21 -17 40 -25 48 -23 78
-75 119 -207 78 -250 159 -363 294 -410 63 -22 82 -23 307 -23 132 0 274 4
315 8 69 7 73 7 56 -8 -11 -8 -27 -15 -36 -15 -11 0 -16 -8 -15 -22 1 -20 7
-23 41 -22 21 1 53 7 69 13 17 7 50 19 75 29 50 18 149 110 197 182 17 25 64
115 106 200 86 178 120 220 174 220 41 0 103 -20 103 -32 0 -5 11 -20 25 -34
36 -36 59 -131 60 -249 1 -104 20 -195 42 -195 7 0 20 -11 28 -24 12 -19 15
-47 13 -131 -2 -88 1 -109 14 -119 8 -6 18 -21 22 -34 4 -12 12 -20 17 -17 12
8 12 45 -1 45 -6 0 -6 9 0 26 6 14 7 30 4 36 -4 7 -2 8 4 4 7 -4 12 -20 12
-37 0 -34 15 -37 38 -10 29 34 121 29 108 -5 -4 -10 2 -14 18 -14 19 0 24 -7
30 -37 15 -94 9 -120 -40 -169 -25 -26 -51 -43 -59 -40 -7 2 -41 8 -75 12
l-61 7 -44 -48 c-25 -26 -45 -53 -45 -61 0 -8 -4 -14 -10 -14 -5 0 -10 -7 -10
-15 0 -8 7 -15 15 -15 13 0 14 -4 4 -22 -6 -13 -19 -31 -28 -40 -39 -41 -40
-45 -30 -83 6 -20 8 -44 6 -53 -4 -13 -5 -12 -6 4 0 12 -8 24 -16 28 -8 3 -15
12 -15 19 0 8 -6 20 -14 27 -12 9 -16 5 -22 -27 l-8 -38 -7 30 c-4 17 -7 23
-8 14 0 -9 -8 -22 -16 -29 -12 -10 -13 -6 -8 26 4 27 3 35 -5 30 -7 -4 -12 -3
-12 3 0 6 -6 8 -13 5 -7 -2 -30 11 -51 31 -42 40 -48 41 -70 19 -9 -8 -16 -12
-16 -7 0 13 13 29 35 42 19 12 19 12 -2 8 -29 -6 -36 5 -28 43 5 21 11 27 23
23 14 -6 13 -2 -4 27 -34 59 -167 81 -189 32 -7 -17 -18 -23 -40 -22 -16 1
-39 1 -50 1 -18 -2 -19 -2 -2 -12 9 -5 17 -18 18 -27 0 -14 2 -13 9 3 7 16 9
17 9 3 1 -9 10 -19 20 -23 34 -10 35 -37 2 -66 -17 -15 -31 -30 -31 -34 0 -3
-7 -13 -15 -21 -13 -13 -15 -13 -15 -1 0 8 -6 19 -12 25 -10 7 -17 1 -29 -24
-16 -32 -16 -35 1 -44 22 -12 16 -52 -6 -43 -9 3 -14 -2 -14 -14 0 -24 37 -28
43 -5 3 9 5 -3 5 -28 0 -34 -2 -40 -8 -25 -6 13 -9 15 -9 5 0 -8 5 -25 12 -38
13 -23 13 -23 31 -3 11 12 14 21 7 26 -6 3 -10 16 -10 28 1 17 2 18 6 5 6 -22
23 -24 23 -2 0 8 5 12 11 8 6 -3 9 -17 6 -30 -4 -21 0 -24 24 -24 20 0 29 5
29 16 0 13 3 14 15 4 8 -7 12 -16 9 -21 -3 -5 -2 -14 2 -20 4 -7 15 -1 30 17
13 16 24 25 23 19 -3 -22 2 -29 10 -16 6 9 8 -3 7 -32 -1 -47 -12 -69 -24 -52
-7 10 -31 14 -114 19 -26 1 -45 -1 -43 -5 9 -13 -45 -16 -56 -3 -14 17 -43 19
-33 3 4 -8 1 -8 -12 -1 -22 11 -84 14 -84 4 0 -11 -182 -4 -193 7 -6 6 -19 6
-33 1 -24 -10 -30 -4 -16 15 9 13 42 34 65 41 9 4 17 10 17 14 0 5 9 12 20 15
11 4 18 10 15 15 -3 4 3 7 13 6 10 0 16 6 16 16 -1 10 4 18 12 18 8 0 13 -3
13 -7 -3 -19 2 -33 11 -33 5 0 9 3 9 8 -4 21 3 24 15 6 14 -18 16 -18 45 14
39 42 48 40 44 -5 -3 -31 -2 -35 7 -20 6 10 13 37 14 61 2 24 10 57 18 73 15
29 15 29 -9 19 -12 -6 -23 -20 -24 -31 l0 -20 -9 20 c-5 11 -9 14 -9 8 -1 -7
-6 -13 -12 -13 -5 0 -7 6 -3 13 4 6 -2 4 -13 -5 -25 -22 -51 -25 -34 -4 8 9 8
16 2 20 -6 4 -8 14 -5 24 5 15 5 15 -6 -1 -6 -9 -9 -21 -5 -26 9 -16 -56 13
-81 36 -13 12 -26 17 -29 12 -10 -16 -27 -10 -21 7 5 12 2 15 -12 12 -11 -3
-27 -1 -37 5 -10 5 -15 6 -13 1 3 -5 2 -18 -3 -29 -7 -19 -8 -19 -8 3 -1 12
-5 22 -10 22 -5 0 -7 -10 -3 -22 3 -14 2 -19 -6 -14 -7 4 -12 2 -12 -3 0 -6
-8 -11 -18 -11 -19 0 -117 -99 -107 -108 3 -3 -4 -11 -14 -19 -13 -8 -19 -24
-19 -44 1 -16 -4 -35 -10 -41 -18 -18 -14 -55 7 -75 11 -10 21 -29 23 -43 4
-29 34 -39 41 -13 3 12 5 9 6 -9 0 -14 4 -35 7 -45 5 -15 4 -15 -5 -3 -7 9
-11 11 -11 3 0 -7 7 -16 16 -21 14 -8 14 -13 4 -32 -7 -12 -8 -25 -4 -29 14
-10 13 -41 -1 -41 -7 0 -15 -7 -19 -15 -3 -8 -1 -15 4 -15 6 0 10 5 10 12 0 6
3 8 8 4 4 -4 -6 -19 -23 -32 -16 -13 -24 -24 -17 -24 22 0 13 -41 -17 -70 -16
-16 -26 -31 -23 -34 2 -3 -9 -18 -26 -34 -23 -22 -35 -26 -48 -19 -12 7 -15 6
-10 -2 4 -6 -2 -14 -14 -19 -12 -4 -22 -12 -23 -17 -1 -4 -14 -9 -28 -9 -21
-1 -26 3 -23 17 3 15 1 17 -11 7 -24 -20 -19 13 5 35 13 11 17 22 11 28 -5 5
-17 1 -31 -13 -12 -12 -23 -20 -25 -18 -2 2 1 23 6 47 11 48 7 60 -14 43 -8
-7 -17 -9 -20 -5 -4 3 -24 1 -45 -6 -33 -11 -38 -17 -34 -37 2 -13 13 -26 24
-30 14 -4 16 -9 8 -19 -7 -9 -6 -16 5 -25 8 -7 15 -18 15 -25 0 -7 10 -24 23
-37 59 -68 92 -112 91 -125 -1 -7 4 -13 12 -13 16 0 64 -72 64 -95 0 -8 3 -15
8 -15 4 -1 27 -19 52 -42 25 -22 37 -38 28 -35 -12 4 -15 2 -11 -9 3 -7 8 -14
12 -14 3 0 20 -12 36 -26 29 -24 29 -25 5 -18 -22 6 -23 6 -7 -10 9 -9 36 -28
59 -41 24 -14 37 -25 29 -25 -11 0 -11 -3 -1 -15 7 -8 17 -15 22 -15 9 0 83
-53 98 -70 23 -26 68 -50 94 -51 24 0 27 -2 12 -8 -16 -6 -13 -10 20 -25 21
-10 45 -24 53 -30 21 -17 198 -56 286 -63 146 -12 418 -2 465 17 3 1 9 2 14 1
5 -1 12 3 15 8 5 7 16 5 34 -4 15 -7 27 -10 27 -4 0 5 8 9 19 9 26 0 91 28 91
40 0 6 5 10 10 10 6 0 10 -7 10 -17 0 -14 2 -15 18 -1 9 9 23 13 30 11 8 -3
16 4 19 16 3 12 10 21 17 20 20 -3 46 13 46 28 0 9 6 12 19 8 10 -3 23 1 30 9
6 8 21 12 31 9 11 -3 20 -1 20 5 0 6 -8 13 -17 15 -15 4 -15 6 5 12 12 4 22
15 22 25 0 10 7 21 16 24 23 9 26 8 18 -6 -11 -20 8 1 52 57 50 65 82 95 98
95 8 0 20 7 27 16 7 9 24 20 37 25 17 7 22 14 17 29 -4 11 -2 20 4 20 6 0 11
7 11 15 0 11 11 15 35 15 32 0 35 2 25 19 -13 25 -13 44 0 36 6 -3 10 -1 10 6
0 15 30 38 51 39 20 0 34 34 69 167 6 24 15 43 21 43 6 0 7 5 4 10 -3 6 -1 10
4 10 6 0 11 8 11 18 0 11 9 27 20 37 11 10 26 37 32 59 7 23 18 45 25 49 7 4
13 19 13 32 0 14 4 25 9 25 12 0 34 83 28 111 -4 22 -4 21 -6 -5 -1 -21 -5
-27 -16 -22 -11 4 -15 -2 -15 -21 0 -21 -2 -23 -14 -13 -8 6 -12 19 -9 28 4
14 3 15 -6 2 -5 -8 -13 -31 -16 -52 -4 -21 -12 -36 -18 -35 -7 1 -11 -6 -11
-15 1 -10 -4 -14 -11 -11 -15 5 -50 -41 -41 -55 3 -6 -3 -12 -15 -15 -16 -4
-19 -2 -15 16 3 12 3 17 0 10 -3 -7 -12 -9 -20 -6 -9 3 -14 -1 -14 -12 0 -9
-7 -24 -17 -33 -15 -16 -16 -15 -11 12 5 25 4 26 -9 13 -12 -11 -12 -19 -4
-35 9 -17 8 -19 -9 -15 -22 6 -27 42 -10 59 15 15 2 44 -16 37 -9 -3 -14 1
-14 12 0 11 -5 15 -14 12 -9 -4 -16 4 -19 21 -3 15 -1 29 4 30 14 6 10 29 -6
36 -8 3 -14 16 -14 28 1 17 2 19 6 5 2 -9 8 -15 13 -12 5 3 4 19 -2 35 -7 22
-7 34 1 44 7 8 8 15 2 18 -5 1 4 30 21 63 21 42 31 76 32 115 1 30 5 60 9 66
3 6 3 14 0 18 -4 4 -8 17 -10 29 -11 68 -115 191 -184 215 -19 6 -54 12 -77
12 -37 0 -42 3 -43 23 -1 16 -2 18 -6 5 -6 -24 -20 -23 -33 2 -9 16 -8 19 7
14 10 -2 4 3 -13 12 -40 21 -43 39 -37 209 4 127 4 130 31 152 17 14 41 22 65
23 23 0 36 4 32 10 -4 7 2 7 19 1 32 -13 176 -13 176 0 0 5 9 9 19 9 26 0 36
17 21 35 -25 30 14 46 143 61 183 20 280 64 349 158 l30 41 -5 -120 c-3 -66
-13 -169 -21 -230 -43 -299 -51 -385 -37 -385 23 0 43 34 37 63 -5 25 -4 28 9
17 15 -13 20 -3 17 39 0 8 5 20 13 25 7 6 18 28 25 49 10 32 9 42 -5 63 -12
19 -19 23 -29 14 -19 -15 -26 27 -19 113 5 60 9 70 30 78 12 4 23 15 23 24 0
9 9 15 22 15 20 0 20 -2 -12 -35 -30 -31 -32 -37 -24 -67 5 -18 17 -34 26 -36
22 -4 31 33 53 222 9 82 29 201 45 265 15 64 33 148 40 186 16 92 25 113 47
112 23 -2 30 51 14 105 -17 55 -17 284 0 304 7 9 14 25 16 37 2 11 7 25 12 31
17 21 24 82 25 201 1 75 5 124 12 130 6 6 17 39 24 75 7 36 19 79 26 97 7 17
10 41 7 52 -3 13 -1 21 7 21 21 0 1 78 -41 159 -21 42 -39 88 -39 102 0 14
-18 66 -41 115 -23 49 -55 118 -71 154 -17 36 -36 82 -44 102 -17 49 -60 124
-95 169 -16 20 -29 42 -29 48 0 5 -13 26 -30 44 -16 19 -30 40 -30 46 0 27
-31 69 -70 96 -23 16 -48 41 -56 57 -17 32 -180 198 -195 198 -6 0 -38 28 -72
63 -85 87 -177 152 -261 183 -39 15 -75 30 -81 34 -5 4 -50 25 -100 45 -49 21
-94 42 -100 47 -5 4 -16 8 -25 8 -9 0 -31 11 -49 24 -30 22 -119 63 -251 116
-100 40 -316 81 -420 79 -36 -1 -117 -7 -180 -15z m-270 -216 c0 -4 -10 -8
-22 -9 -13 -1 -41 -3 -63 -5 -82 -8 -124 -9 -116 -1 4 4 32 10 61 12 28 2 55
6 58 10 9 8 82 2 82 -7z m328 -35 c-10 -2 -28 -2 -40 0 -13 2 -5 4 17 4 22 1
32 -1 23 -4z m-594 -12 c6 -10 -16 -21 -42 -21 -13 0 -12 3 4 15 22 17 31 18
38 6z m288 -22 c-34 -4 -73 -11 -85 -15 -15 -4 -19 -3 -12 4 13 13 47 19 110
19 49 0 49 0 -13 -8z m-142 -24 c-46 -18 -64 -17 -25 0 17 8 37 14 45 14 8 0
-1 -7 -20 -14z m-100 -23 c0 -5 -11 -14 -25 -20 -39 -18 -44 -14 -10 7 36 23
35 23 35 13z m127 2 c-3 -3 -12 -4 -19 -1 -8 3 -5 6 6 6 11 1 17 -2 13 -5z
m-335 -44 c-12 -11 -25 -20 -29 -20 -9 1 36 40 45 40 3 0 -4 -9 -16 -20z m135
4 c-3 -3 -12 -4 -19 -1 -8 3 -5 6 6 6 11 1 17 -2 13 -5z m-57 -18 c0 -2 -7 -7
-16 -10 -8 -3 -12 -2 -9 4 6 10 25 14 25 6z m-187 -81 c-3 -9 -8 -14 -10 -11
-3 3 -2 9 2 15 9 16 15 13 8 -4z m-179 -84 c3 -5 -2 -15 -12 -22 -15 -12 -16
-12 -5 2 7 9 10 19 6 22 -3 4 -4 7 0 7 3 0 8 -4 11 -9z m-54 -55 c0 -2 -8 -10
-17 -17 -16 -13 -17 -12 -4 4 13 16 21 21 21 13z m20 -46 c0 -5 -5 -10 -11
-10 -5 0 -7 5 -4 10 3 6 8 10 11 10 2 0 4 -4 4 -10z m920 -365 c47 -4 102 -10
123 -15 20 -4 37 -4 37 0 0 9 46 -1 109 -24 24 -9 47 -13 53 -10 5 3 19 -1 31
-8 12 -8 45 -21 72 -28 28 -7 62 -23 77 -36 15 -12 42 -25 60 -29 18 -4 38
-11 43 -15 6 -5 39 -18 75 -30 36 -12 69 -26 75 -31 5 -5 17 -9 27 -9 10 0 18
-4 18 -10 0 -5 -5 -10 -11 -10 -5 0 -7 -5 -3 -11 5 -8 8 -8 13 0 8 13 81 -5
81 -19 0 -6 18 -10 40 -10 22 0 40 -4 40 -10 0 -5 6 -10 14 -10 8 0 16 -7 19
-15 4 -8 22 -21 40 -29 19 -8 38 -19 41 -25 4 -6 16 -11 27 -11 12 0 19 -7 19
-19 0 -11 9 -23 20 -26 11 -3 20 -11 20 -17 0 -6 9 -8 20 -5 15 4 20 0 20 -13
0 -10 6 -21 13 -24 10 -5 10 -7 0 -12 -29 -13 -11 -25 27 -19 38 6 57 -6 28
-18 -7 -3 0 -6 16 -6 28 -1 28 -2 13 -19 -24 -26 -21 -33 11 -26 21 4 24 3 12
-5 -9 -7 -11 -14 -5 -18 6 -5 12 -33 13 -63 2 -30 10 -66 17 -80 8 -14 22 -44
32 -67 10 -23 24 -43 31 -43 7 0 12 -15 12 -40 0 -22 5 -40 10 -40 6 0 10 7
10 16 0 13 3 14 15 4 8 -7 13 -16 10 -20 -3 -4 2 -24 10 -44 8 -19 15 -53 15
-74 0 -23 7 -47 18 -60 17 -19 23 -20 56 -10 25 8 32 14 24 20 -9 5 -6 8 10 8
12 0 41 14 64 30 22 17 36 30 30 30 -7 0 -12 5 -12 10 0 6 11 10 24 10 20 0
26 8 37 44 11 38 16 43 36 40 16 -3 23 0 23 12 0 13 3 14 13 5 8 -6 16 -8 19
-5 3 3 9 -7 12 -21 7 -28 -9 -59 -25 -49 -5 3 -9 0 -9 -6 0 -6 -4 -8 -10 -5
-5 3 -10 1 -10 -4 0 -6 -7 -11 -15 -11 -8 0 -15 -9 -15 -20 0 -11 7 -20 15
-20 8 0 15 -3 15 -7 1 -46 23 -148 34 -159 8 -7 12 -24 9 -36 -3 -15 -2 -19 4
-10 9 11 42 -108 59 -210 l6 -37 -68 5 c-56 5 -79 13 -121 40 -29 19 -58 34
-65 34 -7 0 -29 10 -48 22 -30 18 -166 51 -210 50 -113 -1 -166 -6 -188 -18
-15 -7 -49 -18 -77 -25 -27 -6 -68 -19 -90 -29 -22 -9 -61 -23 -87 -30 -27 -7
-48 -17 -48 -21 0 -5 -7 -9 -15 -9 -8 0 -15 -4 -15 -9 0 -5 -21 -9 -46 -8 -34
2 -48 -2 -55 -15 -6 -10 -19 -18 -29 -18 -13 0 -18 -5 -14 -15 5 -12 2 -14
-17 -7 -27 10 -149 -7 -149 -20 0 -19 -158 -6 -220 19 -8 3 -28 8 -45 10 -44
7 -97 31 -90 42 7 12 -32 34 -45 26 -6 -3 -10 1 -10 10 0 9 -4 14 -9 11 -5 -3
-22 1 -37 9 -39 20 -55 19 -47 -2 6 -16 5 -16 -10 -5 -9 8 -26 11 -39 7 -16
-4 -19 -4 -9 3 19 14 -18 33 -50 26 -19 -5 -21 -3 -9 5 9 7 10 11 3 11 -6 0
-15 -5 -18 -11 -5 -7 -14 -6 -28 4 -12 7 -30 17 -41 20 -14 6 -17 4 -12 -9 5
-13 3 -14 -7 -6 -25 21 -297 11 -297 -11 0 -5 -8 -3 -17 4 -9 8 -14 9 -10 2 5
-8 -10 -14 -50 -19 -52 -7 -55 -9 -28 -15 24 -6 21 -7 -20 -7 -27 1 -74 -2
-103 -7 -50 -7 -52 -9 -37 -25 15 -17 14 -18 -17 -18 -18 0 -51 -7 -73 -15
l-40 -15 60 4 c43 3 54 2 40 -5 -11 -5 -32 -10 -47 -10 -16 -1 -27 -4 -27 -8
4 -23 -3 -33 -23 -33 -17 0 -19 -3 -9 -9 19 -12 -21 -25 -49 -16 -12 4 -20 2
-20 -5 0 -7 -8 -9 -20 -5 -11 3 -35 2 -52 -4 -43 -13 -157 -41 -183 -45 -23
-3 -58 -17 -65 -25 -8 -10 -62 -32 -67 -27 -3 2 8 10 23 18 15 7 29 22 30 33
9 59 27 184 30 210 2 17 8 64 13 105 11 89 20 128 32 136 5 3 9 18 9 34 0 16
7 30 16 34 11 4 13 10 6 19 -5 6 -9 45 -7 85 1 39 -2 72 -7 72 -5 0 -8 6 -6
14 2 8 -6 22 -17 30 -11 9 -13 14 -5 11 10 -3 20 5 28 25 17 36 9 65 -14 56
-14 -6 -15 -4 -4 9 8 10 16 12 20 6 3 -6 6 11 5 37 0 26 -4 53 -9 60 -5 9 -1
24 13 42 12 17 17 31 11 35 -14 9 -12 21 5 39 9 8 15 19 14 23 -4 15 13 63 22
63 5 0 9 7 9 15 0 9 7 18 15 21 8 4 15 15 15 25 0 10 4 19 9 19 5 0 13 10 16
23 12 41 50 132 56 135 4 2 4 13 1 25 -3 12 -1 19 3 15 4 -4 17 11 28 34 22
44 57 85 70 80 4 -1 7 5 7 13 0 8 5 15 10 15 6 0 27 16 47 35 20 19 42 35 50
35 7 0 12 6 11 13 -2 9 26 12 113 13 88 1 121 5 138 16 12 9 31 14 42 11 10
-3 19 0 19 6 0 6 9 11 21 11 11 0 17 -4 14 -10 -6 -10 40 -4 78 10 22 7 214 5
337 -5z m-1140 -49 c0 -5 -69 -46 -78 -46 -6 1 69 50 76 50 1 0 2 -2 2 -4z
m-126 -81 c-46 -41 -40 -46 12 -10 38 26 64 32 64 15 0 -5 -9 -14 -20 -20 -52
-28 -233 -207 -224 -222 4 -7 3 -8 -4 -4 -7 4 -23 -5 -37 -21 -13 -15 -25 -23
-25 -16 0 6 5 15 11 18 6 4 8 14 5 22 -3 8 -2 12 3 9 5 -3 15 1 22 10 10 13
10 17 0 24 -9 5 -10 10 -2 14 6 4 15 5 20 2 5 -3 15 2 22 11 8 10 9 14 2 10
-6 -4 -15 -2 -19 4 -4 7 -3 9 4 5 6 -3 13 3 17 13 3 11 24 34 45 51 22 17 39
35 37 39 -2 9 83 79 97 80 5 1 -8 -15 -30 -34z m-143 -33 c-26 -37 -50 -57
-58 -48 -3 3 2 15 12 26 10 11 20 18 23 15 3 -3 11 4 19 15 8 11 16 20 19 20
3 0 -4 -13 -15 -28z m-187 -37 c-6 -16 -24 -21 -24 -7 0 11 11 22 21 22 5 0 6
-7 3 -15z m116 -29 c0 -2 -8 -10 -17 -17 -16 -13 -17 -12 -4 4 13 16 21 21 21
13z m3217 -1372 c-3 -3 -12 -4 -19 -1 -8 3 -5 6 6 6 11 1 17 -2 13 -5z m90
-10 c-3 -3 -12 -4 -19 -1 -8 3 -5 6 6 6 11 1 17 -2 13 -5z m-98 -51 c7 -12 13
-14 18 -7 11 15 73 -2 73 -20 0 -9 -7 -12 -21 -9 -19 5 -20 3 -13 -18 11 -36
10 -61 -3 -66 -6 -2 -15 6 -19 19 -8 26 -36 67 -45 68 -4 0 -10 -11 -13 -25
-4 -14 -12 -25 -18 -25 -7 0 -2 -7 11 -16 15 -11 19 -20 13 -26 -14 -14 -55
10 -48 27 3 8 -5 15 -18 19 -13 3 -26 15 -29 26 -4 16 0 20 20 20 19 0 24 4
19 16 -9 23 2 34 34 34 17 0 33 -7 39 -17z m262 -98 c10 -75 9 -276 -2 -270
-3 3 -6 -23 -6 -58 0 -89 -51 -224 -102 -270 -46 -41 -162 -83 -271 -97 -158
-20 -466 -6 -534 24 -17 8 -41 17 -53 21 -13 3 -42 24 -65 47 l-43 40 48 -37
c26 -21 57 -39 70 -40 12 -2 31 -6 42 -10 11 -4 7 2 -10 13 -49 32 -83 68 -98
104 -8 18 -30 51 -49 72 -27 30 -35 48 -36 81 -2 43 16 64 40 48 7 -3 8 -1 4
5 -4 7 -1 12 8 12 8 0 20 2 28 3 7 2 10 2 6 0 -20 -11 -4 -23 31 -23 22 0 41
-5 43 -12 3 -7 11 -9 24 -3 17 7 17 8 2 12 -31 8 -19 23 17 23 19 0 35 3 35 8
0 4 18 7 40 7 22 0 40 2 40 6 0 3 11 4 25 1 14 -2 25 -8 25 -13 0 -18 18 -8
23 12 5 18 8 19 20 8 8 -8 13 -16 11 -18 -6 -6 29 -30 44 -31 6 0 12 10 12 23
0 16 3 19 9 8 5 -8 16 -11 26 -8 9 4 14 3 11 -2 -7 -11 80 -43 112 -42 16 1
26 -6 29 -19 3 -13 14 -20 29 -20 18 0 23 -6 26 -32 l3 -33 32 33 c17 17 36
32 43 32 6 0 8 4 5 10 -6 10 44 65 66 72 10 3 9 14 -4 46 -15 37 -15 43 -1 57
8 8 22 15 31 15 11 0 14 7 11 25 -3 14 -2 25 3 25 4 0 9 8 11 18 3 9 10 -10
16 -43 17 -81 30 -124 31 -102 2 33 32 127 41 127 4 0 6 -8 3 -19 -3 -10 0
-22 7 -26 20 -13 40 16 40 60 0 37 3 44 25 49 23 6 24 9 19 54 -8 68 -12 78
-26 64 -21 -21 -28 -13 -28 35 l0 48 26 -26 c19 -19 27 -42 35 -94z m-643 91
c-7 -7 -19 -11 -26 -8 -11 4 -11 6 0 13 7 5 19 9 26 9 10 0 10 -3 0 -14z m103
2 c22 -6 39 -15 39 -20 0 -5 -5 -6 -12 -2 -7 4 -29 7 -50 5 -46 -2 -71 9 -42
20 26 10 22 10 65 -3z m-2026 -8 c-4 -6 23 -10 72 -11 148 -1 202 -5 209 -12
6 -6 -55 -12 -80 -8 -17 3 -46 -11 -46 -23 0 -15 -47 -39 -60 -31 -5 3 -11 1
-14 -4 -3 -5 -22 -12 -41 -15 -19 -4 -35 -13 -35 -20 0 -8 -12 -17 -27 -21
-16 -3 -38 -16 -50 -27 -12 -11 -29 -18 -37 -15 -10 4 -16 -1 -18 -16 -2 -12
-13 -26 -25 -32 -26 -11 -33 -32 -33 -108 0 -46 4 -59 18 -64 9 -4 20 -11 24
-16 4 -7 22 -6 50 2 24 7 48 12 53 11 15 -3 55 11 55 19 0 4 13 6 30 3 16 -2
28 -8 25 -12 -3 -4 7 -8 20 -9 14 -1 31 -2 38 -2 6 0 33 2 60 6 34 4 47 3 47
-6 0 -7 3 -9 8 -5 4 4 7 13 7 19 0 7 7 12 15 12 9 0 14 -8 12 -20 -2 -11 1
-16 5 -10 9 12 23 13 40 2 6 -4 13 -1 16 5 4 10 7 11 18 1 20 -19 40 -16 32 5
-6 16 -5 16 13 1 10 -9 34 -24 52 -33 18 -10 31 -23 29 -29 -2 -7 13 -22 35
-35 22 -13 38 -31 38 -41 0 -18 19 -32 43 -30 7 0 3 4 -8 9 -17 7 -14 9 13 9
18 1 42 6 52 11 15 8 21 6 29 -7 8 -14 10 -15 11 -3 0 13 2 13 9 1 5 -8 15
-12 22 -9 21 8 18 -44 -3 -60 -17 -12 -14 -47 2 -37 17 11 75 122 102 195 34
94 37 79 3 -20 -29 -86 -86 -193 -123 -234 -98 -105 -307 -152 -642 -143 -216
5 -269 17 -335 78 -81 75 -134 240 -141 444 -6 163 5 215 57 257 42 34 154 66
274 77 44 5 81 9 83 10 2 0 0 -3 -3 -9z m2125 -10 c0 -5 -9 -10 -20 -10 -11 0
-20 5 -20 10 0 6 9 10 20 10 11 0 20 -4 20 -10z m-1430 -29 c0 -5 -9 -7 -20
-4 -11 3 -20 7 -20 9 0 2 9 4 20 4 11 0 20 -4 20 -9z m40 -11 c0 -5 -2 -10 -4
-10 -3 0 -8 5 -11 10 -3 6 -1 10 4 10 6 0 11 -4 11 -10z m-517 -7 c-7 -2 -19
-2 -25 0 -7 3 -2 5 12 5 14 0 19 -2 13 -5z m372 -3 c16 -7 13 -8 -13 -6 -17 2
-35 6 -39 9 -9 10 28 7 52 -3z m62 4 c-3 -3 -12 -4 -19 -1 -8 3 -5 6 6 6 11 1
17 -2 13 -5z m50 -10 c-3 -3 -12 -4 -19 -1 -8 3 -5 6 6 6 11 1 17 -2 13 -5z
m-32 -14 c13 -6 15 -9 5 -9 -8 0 -22 4 -30 9 -18 12 -2 12 25 0z m159 -15 c40
-43 59 -176 35 -245 -6 -17 -7 -10 -3 26 4 36 1 55 -9 65 -14 15 -12 43 4 33
11 -6 11 2 2 36 -6 24 -7 23 -20 -10 l-13 -35 5 35 6 35 -17 -29 -17 -30 -22
26 c-13 15 -26 25 -29 22 -3 -2 -4 -1 -1 3 3 3 0 12 -7 20 -6 7 -8 16 -5 20 4
3 15 -5 26 -18 16 -19 20 -21 21 -7 0 9 -4 20 -10 23 -15 9 -12 25 5 25 8 0
15 -6 15 -13 0 -7 8 -17 19 -24 29 -18 22 20 -9 46 -14 11 -19 20 -12 21 7 0
23 -11 36 -25z m1192 -52 c-3 -3 -13 -2 -23 1 -17 7 -17 8 2 22 18 13 20 13
23 -1 2 -9 1 -19 -2 -22z m290 0 c-3 -3 -13 -2 -23 2 -17 7 -17 8 2 15 19 7
34 -5 21 -17z m-93 -3 c10 -38 -23 -37 -43 1 -9 16 -7 19 13 19 16 0 26 -7 30
-20z m-1523 -45 c0 -19 -5 -24 -20 -22 -30 5 -35 16 -14 32 27 20 34 18 34
-10z m40 -8 c0 -5 -4 -5 -10 -2 -5 3 -10 14 -10 23 0 15 2 15 10 2 5 -8 10
-19 10 -23z m1290 15 c0 -12 -59 -31 -66 -21 -3 5 -3 12 -1 17 7 9 67 13 67 4z
m-1354 -57 c-11 -8 -25 -15 -32 -15 -7 0 -15 -6 -17 -12 -4 -10 -8 -9 -16 2
-8 12 -3 17 32 27 55 15 55 15 33 -2z m1161 -21 c-3 -3 -12 -4 -19 -1 -8 3 -5
6 6 6 11 1 17 -2 13 -5z m-1716 -20 c3 3 9 -11 15 -30 11 -35 11 -35 -15 -29
-28 7 -41 21 -41 46 0 22 11 31 25 19 7 -5 14 -8 16 -6z m146 -28 c10 -10 -17
-25 -34 -19 -21 8 -16 33 7 30 11 -2 23 -7 27 -11z m-1289 -107 c15 -24 10
-34 -13 -26 -15 6 -22 47 -7 47 4 0 13 -9 20 -21z m2562 -211 c0 -6 -9 -3 -20
7 -11 10 -20 24 -20 32 0 9 6 7 20 -7 11 -11 20 -25 20 -32z m1122 -58 c1 -49
-3 -85 -10 -92 -25 -25 -32 23 -17 112 4 25 7 56 7 70 0 21 1 22 9 7 6 -9 11
-53 11 -97z m-744 -177 c-10 -2 -28 -2 -40 0 -13 2 -5 4 17 4 22 1 32 -1 23
-4z m49 1 c-3 -3 -12 -4 -19 -1 -8 3 -5 6 6 6 11 1 17 -2 13 -5z m-1437 -34
c-19 -13 -30 -13 -30 0 0 6 10 10 23 10 18 0 19 -2 7 -10z m857 -52 c-3 -8 -6
-5 -6 6 -1 11 2 17 5 13 3 -3 4 -12 1 -19z m29 -44 c3 -15 7 -31 10 -36 3 -4
-6 -8 -20 -8 -31 0 -36 33 -8 49 10 6 12 11 4 11 -7 0 -10 5 -7 11 9 14 15 7
21 -27z m-936 -634 c0 -13 -7 -20 -20 -20 -19 0 -19 1 -2 19 22 25 22 25 22 1z
m23 -30 c-3 -12 -8 -19 -11 -16 -5 6 5 36 12 36 2 0 2 -9 -1 -20z m232 10 c-3
-5 -12 -10 -18 -10 -7 0 -6 4 3 10 19 12 23 12 15 0z m292 -30 c-7 -17 -13
-26 -15 -21 -3 10 15 51 22 51 3 0 -1 -14 -7 -30z m-494 0 c-5 -19 -23 -39
-23 -25 0 9 20 45 24 45 2 0 2 -9 -1 -20z m1412 2 c-3 -3 -11 0 -18 7 -9 10
-8 11 6 5 10 -3 15 -9 12 -12z m-1545 -26 c0 -3 -4 -8 -10 -11 -5 -3 -10 -1
-10 4 0 6 5 11 10 11 6 0 10 -2 10 -4z m1286 -23 c-10 -10 -19 5 -10 18 6 11
8 11 12 0 2 -7 1 -15 -2 -18z m131 5 c-3 -8 -6 -5 -6 6 -1 11 2 17 5 13 3 -3
4 -12 1 -19z m-1597 -3 c-7 -9 -15 -13 -19 -10 -3 3 1 10 9 15 21 14 24 12 10
-5z m140 1 c0 -3 -4 -8 -10 -11 -5 -3 -10 -1 -10 4 0 6 5 11 10 11 6 0 10 -2
10 -4z m-95 -26 c3 -5 1 -10 -4 -10 -6 0 -11 5 -11 10 0 6 2 10 4 10 3 0 8 -4
11 -10z m780 -12 c-6 -16 -4 -20 8 -15 9 3 21 -1 27 -8 17 -21 80 -31 90 -15
4 7 13 9 19 6 6 -4 15 3 20 16 7 17 10 19 10 5 1 -15 4 -15 21 -5 16 11 23 10
37 -5 16 -16 16 -18 1 -33 -11 -11 -23 -14 -35 -9 -38 17 -96 -7 -101 -42 -3
-19 2 -22 40 -25 28 -2 47 2 54 11 7 9 16 11 25 6 7 -5 34 -10 59 -11 66 -4
90 -8 84 -14 -3 -3 -15 -6 -27 -7 -68 -7 -98 -12 -151 -23 -45 -9 -251 -9
-251 0 0 1 -25 4 -55 6 -30 3 -71 9 -90 15 -19 5 -47 9 -62 9 -15 0 -30 5 -34
12 -4 6 -3 8 4 4 14 -8 44 23 35 37 -4 7 1 6 10 -2 10 -8 20 -11 23 -9 3 3 25
0 49 -7 29 -9 45 -10 47 -3 2 6 18 4 42 -6 50 -21 116 -22 116 -1 0 10 -10 15
-33 15 -21 0 -42 9 -57 23 -14 12 -27 21 -30 19 -3 -1 -6 9 -8 23 -2 14 2 25
8 25 6 0 8 5 5 10 -7 12 -3 12 19 4 9 -3 16 -12 16 -20 0 -20 12 -17 40 10 31
31 33 31 25 4z m680 13 c3 -5 1 -12 -5 -16 -5 -3 -10 1 -10 9 0 18 6 21 15 7z
m-1508 -19 c-10 -10 -17 -24 -17 -31 0 -7 -5 -9 -12 -5 -7 5 -9 2 -6 -7 4 -10
-2 -15 -18 -17 -13 -1 -24 3 -24 9 0 5 4 8 9 4 5 -3 22 10 37 30 14 19 31 35
37 35 5 0 3 -8 -6 -18z m133 14 c0 -3 -4 -8 -10 -11 -5 -3 -10 -1 -10 4 0 6 5
11 10 11 6 0 10 -2 10 -4z m-96 -53 c-5 -17 -5 -17 9 0 22 26 30 20 11 -9 -12
-17 -19 -21 -24 -13 -4 6 -13 8 -19 5 -6 -4 -8 -12 -5 -18 5 -7 2 -8 -5 -3 -9
5 -7 13 10 31 27 29 30 30 23 7z m1172 -45 c4 -6 3 -8 -4 -5 -5 4 -18 4 -28 0
-14 -5 -9 -9 22 -19 l39 -12 -42 3 c-39 3 -83 19 -83 31 0 3 9 3 20 -1 11 -3
28 -2 37 4 23 14 30 13 39 -1z m81 -24 c-3 -3 -12 -4 -19 -1 -8 3 -5 6 6 6 11
1 17 -2 13 -5z m363 -37 c0 20 32 24 50 6 14 -15 15 -26 7 -63 -5 -25 -15 -52
-22 -60 -20 -23 -22 -55 -5 -75 13 -17 13 -18 0 -13 -10 4 -16 -1 -18 -13 -1
-11 -2 -26 -3 -34 -1 -8 -9 -14 -18 -13 -24 4 -26 -32 -2 -39 16 -4 18 -8 8
-23 -9 -15 -15 -17 -31 -8 -21 11 -21 11 -2 -11 25 -28 13 -40 -16 -15 -12 10
-18 13 -13 5 6 -11 4 -13 -8 -8 -28 10 -17 -26 23 -78 15 -19 15 -19 -14 -1
-22 14 -28 15 -24 4 4 -9 -1 -14 -15 -15 -11 -1 -25 -9 -29 -18 -5 -8 -14 -15
-21 -15 -7 0 -18 -9 -25 -20 -7 -12 -18 -17 -29 -13 -12 5 -15 2 -11 -9 4 -9
1 -21 -5 -27 -17 -17 -27 -13 -20 7 3 9 3 14 -2 10 -4 -4 -14 -3 -22 3 -9 9
-13 8 -13 0 0 -15 -37 -14 -42 1 -3 7 -12 2 -26 -12 l-21 -23 -20 24 c-11 13
-20 18 -21 12 0 -15 -20 -18 -20 -3 0 14 -48 59 -55 52 -3 -4 -3 2 1 12 4 10
3 21 -2 25 -5 3 -15 19 -22 35 l-13 28 -87 -7 c-48 -5 -125 -10 -172 -12 -124
-5 -120 -4 -108 -26 5 -10 7 -21 4 -25 -3 -3 -6 1 -6 9 0 8 -8 4 -19 -11 l-19
-24 -24 19 c-12 11 -17 13 -11 4 9 -11 10 -25 3 -47 -7 -25 -6 -32 6 -32 8 0
14 -7 14 -15 0 -18 1 -18 34 -5 14 5 26 6 26 2 0 -4 14 -13 31 -21 26 -12 32
-12 40 0 7 11 11 10 23 -6 12 -17 16 -17 31 -5 13 11 18 11 25 1 6 -10 10 -9
18 5 7 13 9 5 5 -32 -4 -47 -3 -48 12 -29 11 13 15 15 13 5 -1 -8 2 -16 7 -17
6 0 9 3 7 9 -1 5 2 6 9 3 6 -4 8 -17 5 -29 -3 -13 2 -32 11 -45 15 -22 15 -23
-6 -12 -24 13 -27 4 -7 -22 7 -9 12 -35 11 -57 -1 -22 2 -37 7 -34 5 4 7 17 4
29 -4 14 -1 27 6 31 8 5 9 2 5 -9 -3 -9 -2 -19 4 -23 6 -3 8 -12 5 -20 -3 -7
-1 -16 5 -20 6 -3 8 -13 5 -21 -3 -8 1 -25 9 -37 14 -21 14 -24 0 -29 -8 -4
-14 -3 -14 1 3 21 -2 42 -10 38 -4 -3 -6 6 -3 19 3 20 1 24 -12 19 -9 -3 -16
-11 -16 -18 0 -6 -5 -4 -10 4 -5 8 -7 36 -4 61 4 28 2 49 -4 53 -7 4 -9 -6 -5
-31 6 -35 5 -37 -10 -24 -16 12 -17 9 -17 -42 0 -31 -5 -59 -11 -63 -8 -4 -9
4 -4 27 4 25 3 30 -4 19 -9 -13 -11 -12 -12 5 l0 20 -9 -20 c-4 -11 -4 -24 1
-30 12 -12 12 -28 0 -21 -5 4 -12 0 -14 -6 -3 -7 -6 -2 -7 12 l-1 25 -10 -23
c-5 -13 -6 -34 -3 -46 3 -15 0 -25 -9 -29 -10 -4 -13 4 -12 29 0 21 -4 34 -11
34 -7 0 -16 9 -19 20 -6 20 -25 19 -25 -1 0 -6 5 -7 10 -4 6 3 10 4 10 1 0 -2
3 -12 6 -20 5 -12 2 -15 -9 -10 -9 3 -20 18 -25 32 l-9 27 -16 -35 c-8 -19
-16 -28 -17 -20 -1 8 -6 4 -10 -10 -8 -24 -8 -23 -9 8 -1 21 4 32 13 32 8 0
17 7 20 16 4 10 13 13 26 9 16 -5 19 -3 14 12 -4 13 -1 12 14 -6 l19 -24 6 33
c8 38 -3 63 -14 34 -7 -17 -8 -17 -8 4 -1 12 4 22 9 22 6 0 10 8 10 17 0 14
-5 12 -26 -8 l-27 -24 13 25 c7 14 18 28 24 32 7 5 5 8 -5 8 -9 0 -19 -6 -22
-14 -3 -8 -15 -20 -26 -26 -18 -9 -20 -8 -14 7 4 10 10 21 15 24 5 3 6 14 2
24 -6 15 -10 13 -26 -16 -18 -32 -19 -30 -3 16 6 16 3 15 -14 -5 -11 -14 -21
-29 -21 -33 0 -12 -30 20 -30 32 0 6 -4 11 -10 11 -5 0 -10 -2 -10 -4 0 -2 -3
-12 -7 -22 -5 -13 -3 -15 7 -9 16 10 -19 -52 -39 -68 -12 -10 -13 -9 -6 3 4 8
15 24 24 34 12 14 13 20 4 23 -21 8 16 55 37 48 10 -3 22 0 26 6 5 9 2 10 -9
6 -9 -3 -18 -1 -20 6 -2 7 -21 -7 -44 -32 -22 -24 -43 -39 -47 -33 -3 5 1 12
9 16 8 3 15 10 15 16 0 6 -4 8 -10 5 -5 -3 -10 -1 -10 5 0 7 8 9 23 4 12 -3
19 -3 15 1 -5 5 6 17 23 27 45 28 31 31 -23 5 -30 -14 -47 -29 -48 -40 0 -10
-4 -15 -10 -12 -5 3 -10 3 -10 -2 -1 -4 -9 -18 -20 -31 -20 -25 -43 -22 -34 3
4 8 10 13 14 10 4 -3 11 2 14 11 4 9 2 13 -5 8 -7 -4 -10 -1 -7 7 3 8 11 13
17 11 7 -1 10 2 7 7 -3 5 1 14 9 21 16 13 20 31 8 29 -5 -1 -15 -1 -23 0 -12
1 -11 5 4 16 11 8 17 18 13 22 -4 3 -15 -1 -25 -10 -10 -10 -21 -14 -25 -11
-3 3 -14 1 -24 -6 -16 -9 -15 -10 7 -5 l25 6 -25 -20 c-14 -12 -31 -26 -38
-32 -10 -8 -12 -5 -8 16 3 15 10 33 17 41 6 8 9 17 7 20 -3 3 -21 -18 -39 -45
-18 -28 -36 -51 -40 -51 -4 0 -16 -3 -26 -6 -17 -6 -17 -6 1 8 10 8 16 20 12
26 -5 8 0 12 13 12 12 0 21 7 21 15 0 8 7 15 15 15 8 0 15 5 15 11 0 6 -10 8
-22 5 -13 -3 -17 -3 -10 0 14 7 17 44 2 44 -5 0 -20 -16 -34 -36 -14 -21 -27
-31 -31 -25 -3 6 0 11 7 12 10 0 10 2 1 6 -10 3 -9 8 2 20 28 27 16 84 -16 76
-24 -7 -25 5 -1 23 16 13 16 13 -3 14 -19 1 -19 2 4 21 30 24 21 37 -11 15
-26 -18 -38 -20 -38 -6 0 6 5 10 11 10 11 0 39 24 39 34 0 8 -33 -5 -52 -22
-24 -20 -23 -10 2 18 11 13 17 26 14 29 -4 3 -9 0 -12 -8 -4 -11 -6 -11 -12 0
-7 10 -14 10 -36 0 l-27 -12 28 37 c22 29 25 38 14 45 -20 13 -29 11 -23 -4 3
-8 -2 -20 -11 -27 -13 -11 -15 -9 -15 9 0 13 -7 21 -17 22 -11 0 -13 3 -5 6
21 8 14 32 -9 26 -15 -4 -22 0 -26 16 -3 12 -13 21 -22 20 -32 -3 -40 1 -34
17 5 13 7 13 14 2 7 -10 9 -11 9 0 0 7 5 10 10 7 6 -3 10 0 10 7 0 7 14 22 30
33 32 22 41 42 13 30 -60 -25 -79 -12 -48 31 8 12 11 24 8 28 -3 3 1 6 10 6
10 0 17 5 17 11 0 6 -9 8 -21 4 -15 -5 -19 -4 -15 4 4 6 18 11 32 11 17 0 23
4 18 12 -5 7 -2 9 8 5 12 -4 14 -1 11 14 -7 26 1 24 32 -7 14 -14 29 -23 34
-19 5 3 12 1 16 -5 3 -5 17 -10 31 -10 13 0 24 -5 24 -10 0 -15 59 -38 81 -33
10 3 22 18 27 33 8 22 18 29 49 35 22 3 52 1 68 -5 55 -20 85 -35 85 -41 0 -3
14 -4 30 -1 20 3 37 -2 49 -12 10 -9 25 -14 35 -10 11 4 16 1 16 -10 0 -9 7
-16 15 -16 8 0 21 -15 29 -32 l14 -33 1 38 c1 44 26 48 26 4 0 -14 7 -32 16
-39 9 -7 19 -20 22 -28 4 -12 6 -11 6 3 1 18 21 25 21 6 0 -5 5 -7 11 -3 7 4
8 23 4 52 -6 40 -5 44 8 34 12 -10 16 -10 21 0 3 7 4 -4 1 -24 -5 -33 -4 -37
14 -33 17 3 21 -3 26 -33 9 -52 13 -62 25 -62 5 0 10 6 10 13 0 8 3 7 10 -3 7
-12 12 -10 30 10 17 20 23 22 30 10 5 -8 12 -11 16 -7 4 4 -1 13 -11 21 -16
11 -21 11 -33 0 -17 -18 -22 -18 -44 3 -20 18 -24 48 -8 58 6 3 10 -1 10 -9 0
-9 5 -16 10 -16 6 0 8 10 4 24 -3 13 -1 27 5 31 7 4 14 -6 17 -24 7 -32 22
-39 41 -20 7 7 12 2 18 -18 3 -15 12 -31 18 -35 15 -9 37 10 31 27 -7 17 52
39 60 22 5 -9 7 -9 12 1 3 6 10 12 15 12 11 0 23 9 88 68 27 23 56 42 65 42
10 0 20 9 23 20 3 11 9 20 14 20 5 0 9 6 9 13 0 8 14 13 37 14 21 1 39 6 41
12 2 6 19 11 38 11 33 0 47 14 22 22 -7 3 -8 9 -3 18 6 10 11 9 22 -5 7 -11
13 -14 13 -8z m-1190 -77 c0 -5 -4 -10 -10 -10 -5 0 -10 5 -10 10 0 6 5 10 10
10 6 0 10 -4 10 -10z m-22 -31 c-2 -6 -7 -10 -12 -9 -5 1 -13 -4 -17 -12 -7
-10 -9 -10 -9 3 0 9 3 19 7 22 10 11 35 8 31 -4z m590 -80 c-3 -8 -7 -3 -11
10 -4 17 -3 21 5 13 5 -5 8 -16 6 -23z m-103 1 c3 -5 -1 -10 -10 -10 -9 0 -13
5 -10 10 3 6 8 10 10 10 2 0 7 -4 10 -10z m-845 -110 c0 -5 -5 -10 -11 -10 -5
0 -7 5 -4 10 3 6 8 10 11 10 2 0 4 -4 4 -10z m-127 -28 c-10 -10 -33 -40 -51
-66 -18 -27 -36 -46 -39 -43 -3 3 4 16 16 28 21 23 25 33 22 58 -2 7 2 10 7 7
5 -3 17 3 27 14 10 11 22 20 27 20 4 0 0 -8 -9 -18z m-313 -1 c0 -10 -24 -21
-43 -21 -7 0 -3 7 7 15 22 17 36 19 36 6z m290 -86 c-7 -8 -17 -15 -22 -15 -6
0 -5 7 2 15 7 8 17 15 22 15 6 0 5 -7 -2 -15z m-80 -36 c0 -4 -7 -14 -15 -23
-8 -8 -15 -19 -15 -25 0 -6 -7 -11 -15 -11 -8 0 -15 5 -15 11 0 5 4 7 10 4 6
-3 7 1 4 9 -3 9 -1 16 5 16 6 0 11 6 11 13 0 8 7 14 15 14 8 0 15 -4 15 -8z
m1680 -49 c0 -5 -4 -10 -10 -10 -5 0 -10 5 -10 10 0 6 5 10 10 10 6 0 10 -4
10 -10z m-1640 -24 c0 -2 -7 -6 -15 -10 -8 -3 -15 -1 -15 4 0 6 7 10 15 10 8
0 15 -2 15 -4z m-15 -36 c3 -5 -1 -10 -9 -10 -9 0 -16 5 -16 10 0 6 4 10 9 10
6 0 13 -4 16 -10z m219 -5 c3 -8 1 -15 -4 -15 -6 0 -10 7 -10 15 0 8 2 15 4
15 2 0 6 -7 10 -15z m1242 -7 c4 -7 3 -8 -4 -4 -7 4 -12 2 -12 -5 0 -7 -3 -10
-6 -6 -6 5 3 27 11 27 2 0 7 -5 11 -12z m-261 -38 c3 -6 -1 -7 -9 -4 -18 7
-21 14 -7 14 6 0 13 -4 16 -10z m-741 -8 c3 -5 -1 -9 -9 -9 -8 0 -12 4 -9 9 3
4 7 8 9 8 2 0 6 -4 9 -8z m-39 -92 c-10 -11 -21 -18 -23 -15 -6 6 31 44 37 39
2 -2 -4 -13 -14 -24z m255 16 c0 -1 -15 -13 -32 -26 -18 -13 -27 -17 -21 -8 7
8 9 19 5 23 -4 5 -1 5 6 1 7 -4 12 -1 12 8 0 10 6 13 15 10 8 -4 15 -7 15 -8z
m476 -7 c19 -22 19 -22 -3 -10 -13 6 -23 16 -23 21 0 15 5 12 26 -11z m127
-19 c3 -11 1 -20 -4 -20 -5 0 -9 9 -9 20 0 11 2 20 4 20 2 0 6 -9 9 -20z m-59
-31 c11 -58 8 -65 -19 -39 -14 13 -25 33 -24 44 1 18 3 17 12 -6 15 -38 28
-36 17 2 -5 17 -5 30 -1 30 5 0 11 -14 15 -31z m23 -1 c-3 -8 -6 -5 -6 6 -1
11 2 17 5 13 3 -3 4 -12 1 -19z m-637 9 c0 -2 -9 -12 -20 -22 -24 -21 -27 -14
-4 9 15 15 24 20 24 13z m663 -27 c3 -11 1 -18 -4 -14 -5 3 -9 12 -9 20 0 20
7 17 13 -6z m-793 0 c0 -5 -5 -10 -11 -10 -5 0 -7 5 -4 10 3 6 8 10 11 10 2 0
4 -4 4 -10z m20 -20 c-33 -26 -49 -26 -19 0 13 10 29 19 34 19 6 1 -1 -8 -15
-19z m320 -21 c0 -11 -4 -18 -10 -14 -5 3 -7 12 -3 20 7 21 13 19 13 -6z
m-197 -44 c-3 -9 -8 -14 -10 -11 -3 3 -2 9 2 15 9 16 15 13 8 -4z m98 -28
c-10 -9 -11 -8 -5 6 3 10 9 15 12 12 3 -3 0 -11 -7 -18z m29 3 c-6 -11 -13
-20 -16 -20 -2 0 0 9 6 20 6 11 13 20 16 20 2 0 0 -9 -6 -20z m360 -25 c19
-50 24 -78 11 -71 -6 4 -11 17 -11 29 0 18 -2 19 -10 7 -7 -11 -10 -5 -10 23
0 43 7 47 20 12z m-73 -67 c-3 -8 -6 -5 -6 6 -1 11 2 17 5 13 3 -3 4 -12 1
-19z m-131 -14 c-4 -9 -9 -15 -11 -12 -3 3 -3 13 1 22 4 9 9 15 11 12 3 -3 3
-13 -1 -22z m258 -20 c3 -8 2 -12 -4 -9 -6 3 -10 10 -10 16 0 14 7 11 14 -7z"/>
<path d="M2190 4340 c-9 -6 -10 -10 -3 -10 6 0 15 5 18 10 8 12 4 12 -15 0z"/>
<path d="M1696 5684 c-15 -14 -26 -28 -22 -31 3 -4 7 -4 9 -2 1 2 13 16 26 32
30 34 25 34 -13 1z"/>
<path d="M5052 3840 c0 -14 2 -19 5 -12 2 6 2 18 0 25 -3 6 -5 1 -5 -13z"/>
<path d="M2262 4219 c-18 -5 -30 -14 -27 -19 4 -6 -3 -10 -14 -10 -12 0 -21
-4 -21 -10 0 -13 27 -13 90 1 27 6 48 15 44 20 -3 5 4 9 15 9 12 0 21 5 21 10
0 12 -63 12 -108 -1z"/>
<path d="M3163 3561 c-33 -37 -44 -51 -37 -51 12 0 74 51 74 61 0 15 -19 10
-37 -10z"/>
<path d="M3476 2443 c-6 -14 -5 -15 5 -6 7 7 10 15 7 18 -3 3 -9 -2 -12 -12z"/>
<path d="M4220 2262 c0 -10 7 -27 15 -38 13 -18 14 -17 15 19 0 26 -4 37 -15
37 -8 0 -15 -8 -15 -18z"/>
<path d="M4280 2274 c0 -2 9 -13 20 -24 18 -18 38 -11 26 9 -6 9 -46 22 -46
15z"/>
<path d="M3510 2124 c0 -8 5 -12 10 -9 6 4 8 11 5 16 -9 14 -15 11 -15 -7z"/>
<path d="M3568 2045 c-2 -19 0 -35 4 -35 4 0 8 16 8 35 0 19 -2 35 -4 35 -2 0
-6 -16 -8 -35z"/>
<path d="M2890 2049 c0 -5 5 -7 10 -4 6 3 10 8 10 11 0 2 -4 4 -10 4 -5 0 -10
-5 -10 -11z"/>
<path d="M3616 2041 c-8 -12 3 -41 15 -41 12 0 12 37 0 45 -5 3 -12 1 -15 -4z"/>
<path d="M3650 2026 c0 -9 5 -16 10 -16 6 0 10 4 10 9 0 6 -4 13 -10 16 -5 3
-10 -1 -10 -9z"/>
<path d="M4194 1965 c-9 -22 1 -29 15 -11 8 10 9 16 1 21 -5 3 -13 -1 -16 -10z"/>
<path d="M3900 1961 c0 -6 4 -13 10 -16 6 -3 7 1 4 9 -7 18 -14 21 -14 7z"/>
<path d="M3418 1930 c-7 -18 18 -45 27 -30 3 6 2 10 -4 10 -5 0 -11 8 -13 18
-3 14 -5 14 -10 2z"/>
<path d="M3445 1930 c3 -5 8 -10 11 -10 2 0 4 5 4 10 0 6 -5 10 -11 10 -5 0
-7 -4 -4 -10z"/>
<path d="M3460 1755 c-7 -9 -11 -18 -8 -20 3 -3 11 1 18 10 7 9 11 18 8 20 -3
3 -11 -1 -18 -10z"/>
<path d="M3415 1700 c-3 -5 -1 -10 4 -10 6 0 11 5 11 10 0 6 -2 10 -4 10 -3 0
-8 -4 -11 -10z"/>
<path d="M3535 1647 c-27 -44 -29 -51 -16 -43 12 8 44 66 39 71 -2 2 -12 -11
-23 -28z"/>
<path d="M3445 1660 c-3 -5 -1 -10 4 -10 6 0 11 5 11 10 0 6 -2 10 -4 10 -3 0
-8 -4 -11 -10z"/>
<path d="M3648 1588 c4 -28 6 -30 12 -13 8 21 3 45 -9 45 -4 0 -5 -15 -3 -32z"/>
<path d="M3642 1525 c0 -16 2 -22 5 -12 2 9 2 23 0 30 -3 6 -5 -1 -5 -18z"/>
<path d="M2280 6593 c0 -10 40 -36 46 -30 3 2 -7 12 -21 21 -14 9 -25 13 -25
9z"/>
<path d="M2245 6510 c-3 -6 4 -14 17 -19 28 -10 30 -9 22 13 -7 18 -29 21 -39
6z"/>
<path d="M2239 6453 c-13 -17 -13 -17 6 -3 11 8 22 16 24 17 2 2 0 3 -6 3 -6
0 -17 -8 -24 -17z"/>
<path d="M1636 6044 c-5 -14 -4 -15 9 -4 17 14 19 20 6 20 -5 0 -12 -7 -15
-16z"/>
<path d="M1500 5941 c-19 -16 -33 -31 -30 -34 3 -3 23 10 45 29 22 18 35 34
30 34 -6 0 -26 -13 -45 -29z"/>
<path d="M1416 5878 c-15 -18 -30 -37 -34 -43 -14 -17 -22 -45 -13 -45 4 0 16
18 26 41 11 23 29 45 42 50 13 5 23 13 23 19 0 19 -18 10 -44 -22z"/>
<path d="M1620 5885 c-7 -8 -8 -15 -2 -15 5 0 15 7 22 15 7 8 8 15 2 15 -5 0
-15 -7 -22 -15z"/>
<path d="M1484 5809 c-19 -22 -19 -22 4 -8 12 8 22 17 22 21 0 12 -6 9 -26
-13z"/>
<path d="M2820 3270 c0 -5 5 -10 10 -10 6 0 10 5 10 10 0 6 -4 10 -10 10 -5 0
-10 -4 -10 -10z"/>
<path d="M3850 3125 c0 -8 5 -15 10 -15 6 0 10 7 10 15 0 8 -4 15 -10 15 -5 0
-10 -7 -10 -15z"/>
<path d="M3946 3088 c-3 -13 -1 -27 4 -32 7 -7 10 1 10 22 0 37 -5 41 -14 10z"/>
<path d="M1957 2856 c-16 -42 0 -146 24 -146 10 0 9 69 -2 75 -4 3 -6 11 -4
18 3 7 1 25 -3 42 -7 24 -9 26 -15 11z"/>
<path d="M3180 2735 c0 -8 2 -15 4 -15 2 0 6 7 10 15 3 8 1 15 -4 15 -6 0 -10
-7 -10 -15z"/>
<path d="M2076 2414 c-8 -21 -8 -24 3 -24 5 0 11 9 14 20 6 24 -8 27 -17 4z"/>
<path d="M4920 2405 c0 -8 2 -15 4 -15 2 0 6 7 10 15 3 8 1 15 -4 15 -6 0 -10
-7 -10 -15z"/>
<path d="M2135 2311 c-3 -5 -1 -12 5 -16 5 -3 10 -13 10 -21 0 -8 -4 -12 -10
-9 -5 3 -10 1 -10 -5 0 -7 7 -10 15 -7 19 8 30 -10 16 -27 -8 -10 -7 -17 4
-26 8 -7 15 -21 15 -31 0 -11 5 -19 10 -19 6 0 19 -9 30 -20 11 -11 20 -24 20
-30 0 -5 4 -10 9 -10 6 0 6 -12 1 -29 -8 -29 -8 -29 28 -24 21 3 44 12 52 20
13 13 13 14 0 11 -10 -2 -14 3 -12 15 3 19 -14 23 -21 5 -4 -10 -6 -10 -6 0
-1 7 -6 10 -13 6 -7 -5 -8 -3 -4 5 5 8 0 14 -13 18 -19 5 -26 21 -22 47 1 5
-2 12 -6 15 -5 3 -19 27 -32 53 -13 26 -28 45 -32 42 -5 -3 -9 6 -9 20 0 26
-13 35 -25 17z"/>
<path d="M4648 1703 c7 -3 16 -2 19 1 4 3 -2 6 -13 5 -11 0 -14 -3 -6 -6z"/>
<path d="M4683 1512 c2 -56 1 -58 -22 -54 -23 5 -24 4 -17 -49 3 -30 9 -120
13 -201 3 -82 10 -148 14 -148 5 0 9 -21 9 -47 0 -27 7 -57 15 -67 9 -12 15
-42 15 -73 0 -29 5 -53 10 -53 6 0 10 -24 10 -53 0 -31 6 -61 15 -73 13 -18
14 -15 15 29 0 39 3 47 19 47 16 0 20 -9 23 -62 1 -34 -2 -74 -9 -90 -7 -16
-10 -42 -6 -59 6 -30 -23 -109 -39 -109 -5 0 -8 -9 -8 -20 0 -22 -9 -35 -50
-78 -14 -14 -18 -21 -10 -17 8 5 4 -4 -9 -20 -12 -17 -30 -33 -39 -36 -9 -3
-17 -10 -18 -15 -2 -22 -17 -44 -30 -44 -7 0 -16 -10 -19 -22 -4 -13 -24 -36
-46 -51 -21 -16 -39 -34 -39 -42 0 -7 -21 -24 -47 -37 -26 -14 -53 -35 -61
-47 l-14 -21 1441 0 1441 0 0 104 0 104 -52 45 c-29 24 -73 55 -98 67 -39 20
-106 61 -210 129 -14 9 -36 22 -50 28 -233 108 -307 150 -372 213 -23 22 -57
47 -77 56 -101 46 -279 139 -306 160 -18 13 -34 24 -37 24 -3 0 -35 18 -69 40
-35 22 -93 54 -129 70 -36 17 -73 34 -82 40 -73 42 -208 104 -280 130 -47 16
-117 50 -154 75 -36 25 -72 45 -79 45 -23 0 -299 127 -456 210 -31 17 -68 30
-82 30 -25 0 -26 -2 -24 -58z m-6 -354 c-3 -7 -5 -2 -5 12 0 14 2 19 5 13 2
-7 2 -19 0 -25z"/>
<path d="M2070 1520 c-14 -11 -30 -20 -36 -20 -22 0 -205 -98 -257 -137 -28
-22 -97 -63 -152 -92 -55 -29 -170 -93 -255 -142 -85 -49 -202 -114 -260 -145
-58 -32 -145 -81 -194 -111 -48 -30 -154 -93 -235 -140 -122 -72 -236 -141
-346 -210 -11 -7 -51 -31 -90 -53 -38 -23 -108 -66 -155 -98 l-85 -57 -3 -158
-3 -157 1341 0 c1065 0 1340 3 1340 13 -1 15 -71 60 -122 78 -21 7 -38 16 -38
19 0 4 -20 17 -45 29 -25 12 -45 26 -45 30 0 3 -14 15 -31 25 -17 10 -56 42
-86 72 -31 30 -59 54 -62 54 -4 0 -17 18 -31 40 -14 22 -28 40 -32 40 -12 0
-81 110 -125 200 -73 150 -120 314 -129 451 -11 165 25 263 148 394 25 26 38
50 38 68 0 32 -15 34 -50 7z"/>
</g>
</svg>
